<?xml version="1.0" encoding="utf-8"?>
<!-- Generator: Adobe Illustrator 23.0.0, SVG Export Plug-In . SVG Version: 6.00 Build 0)  -->
<svg version="1.1" id="Camada_1" focusable="false" xmlns="http://www.w3.org/2000/svg" xmlns:xlink="http://www.w3.org/1999/xlink"
	 x="0px" y="0px" viewBox="0 0 512 512" style="enable-background:new 0 0 512 512;" xml:space="preserve">
<style type="text/css">
	.st0{fill:#6C5DD3;}
</style>
<path class="st0" d="M343.3,23.9C215.1-24.3,72.1,40.5,23.9,168.7c-48.2,128.2,16.6,271.2,144.8,319.4s271.2-16.6,319.4-144.8
	C536.3,215.2,471.5,72.1,343.3,23.9z M256,456c-110.5,0-200-89.4-200-200c0-110.5,89.5-200,200-200c110.5,0,200,89.5,200,200
	C456,366.5,366.6,456,256,456z M379.5,254.8c-31,59.4-95.7,26.9-107.2,48.8l-2.9,5.6c-3.1,5.9-10.3,8.2-16.2,5.1l-40.5-21.1
	c-5.9-3.1-8.2-10.3-5.1-16.2l4-7.7c16.5-31.7,47.2-31.8,70.6-32.5c20.1-0.6,32.8-1.6,38.8-13.1c8-15.3-6.2-35.6-22-43.8
	c-20.6-10.7-35.1-5.9-57.3,3.9c-6,2.7-13,0.1-15.8-5.8l-14.9-31.6c-2.7-5.8-0.4-12.7,5.2-15.7c37-19.8,72.7-23.2,114.2-1.5
	C374.2,151.9,402.9,210.1,379.5,254.8z M244.3,372.9c-10.7,20.5-36.1,28.5-56.7,17.8c-20.5-10.7-28.5-36.1-17.8-56.7
	c10.7-20.5,36.1-28.5,56.7-17.8C247,326.9,255,352.4,244.3,372.9z"/>
</svg>
